<svg width="0" height="0" class="hidden">
  <symbol xmlns="http://www.w3.org/2000/svg" viewBox="0 -960 960 960" id="close">
    <path d="M480-424 284-228q-11 11-28 11t-28-11q-11-11-11-28t11-28l196-196-196-196q-11-11-11-28t11-28q11-11 28-11t28 11l196 196 196-196q11-11 28-11t28 11q11 11 11 28t-11 28L536-480l196 196q11 11 11 28t-11 28q-11 11-28 11t-28-11L480-424Z"></path>
  </symbol>
  <symbol xmlns="http://www.w3.org/2000/svg" viewBox="0 -960 960 960" id="hourglass">
    <path d="M320-160h320v-120q0-66-47-113t-113-47q-66 0-113 47t-47 113v120ZM200-80q-17 0-28.5-11.5T160-120q0-17 11.5-28.5T200-160h40v-120q0-61 28.5-114.5T348-480q-51-32-79.5-85.5T240-680v-120h-40q-17 0-28.5-11.5T160-840q0-17 11.5-28.5T200-880h560q17 0 28.5 11.5T800-840q0 17-11.5 28.5T760-800h-40v120q0 61-28.5 114.5T612-480q51 32 79.5 85.5T720-280v120h40q17 0 28.5 11.5T800-120q0 17-11.5 28.5T760-80H200Z"></path>
  </symbol>
  <symbol xmlns="http://www.w3.org/2000/svg" viewBox="0 -960 960 960" id="star">
    <path d="m354-247 126-76 126 77-33-144 111-96-146-13-58-136-58 135-146 13 111 97-33 143Zm126 18L314-129q-11 7-23 6t-21-8q-9-7-14-17.5t-2-23.5l44-189-147-127q-10-9-12.5-20.5T140-531q4-11 12-18t22-9l194-17 75-178q5-12 15.5-18t21.5-6q11 0 21.5 6t15.5 18l75 178 194 17q14 2 22 9t12 18q4 11 1.5 22.5T809-488L662-361l44 189q3 13-2 23.5T690-131q-9 7-21 8t-23-6L480-229Zm0-201Z"></path>
  </symbol>
  <symbol xmlns="http://www.w3.org/2000/svg" viewBox="0 -960 960 960" id="monitoring">
    <path d="M120-160v-40l80-80v120q0 17-11.5 28.5T160-120q-17 0-28.5-11.5T120-160Zm160 0v-200l80-80v280q0 17-11.5 28.5T320-120q-17 0-28.5-11.5T280-160Zm160 0v-280l80 81v199q0 17-11.5 28.5T480-120q-17 0-28.5-11.5T440-160Zm160 0v-199l80-80v279q0 17-11.5 28.5T640-120q-17 0-28.5-11.5T600-160Zm160 0v-360l80-80v440q0 17-11.5 28.5T800-120q-17 0-28.5-11.5T760-160ZM132-452l211-211q23-23 57-23t57 23l103 103 212-212q12-12 28.5-11.5T829-771q11 12 10.5 28.5T828-715L617-504q-23 23-57 23t-57-23L400-607 188-395q-12 12-28.5 11.5T131-396q-11-12-10.5-28.5T132-452Z"></path>
  </symbol>
  <symbol xmlns="http://www.w3.org/2000/svg" viewBox="0 -960 960 960" id="movie">
    <path d="m160-800 80 160h120l-80-160h80l80 160h120l-80-160h80l80 160h120l-80-160h120q33 0 56.5 23.5T880-720v480q0 33-23.5 56.5T800-160H160q-33 0-56.5-23.5T80-240v-480q0-33 23.5-56.5T160-800Zm0 240v320h640v-320H160Zm0 0v320-320Z"></path>
  </symbol>
  <symbol xmlns="http://www.w3.org/2000/svg" viewBox="0 -960 960 960" id="keyboard-backspace">
    <path d="m272-440 116 116q11 11 11 28t-11 28q-11 11-28 11t-28-11L148-452q-6-6-8.5-13t-2.5-15q0-8 2.5-15t8.5-13l184-184q11-11 28-11t28 11q11 11 11 28t-11 28L272-520h528q17 0 28.5 11.5T840-480q0 17-11.5 28.5T800-440H272Z"></path>
  </symbol>
  <symbol xmlns="http://www.w3.org/2000/svg" viewBox="0 0 20 20" id="minimize">
    <path d="M16 10c0 0.553-0.048 1-0.601 1h-10.798c-0.552 0-0.601-0.447-0.601-1s0.049-1 0.601-1h10.799c0.552 0 0.6 0.447 0.6 1z"></path>
  </symbol>
</svg>