<svg width="0" height="0" class="hidden">
  <symbol xmlns="http://www.w3.org/2000/svg" viewBox="0 0 512 512" id="arrow-back-outline">
    <path fill="none" stroke="currentColor" stroke-linecap="round" stroke-linejoin="round" stroke-width="48" d="M244 400L100 256l144-144M120 256h292"></path>
  </symbol>
  <symbol xmlns="http://www.w3.org/2000/svg" viewBox="0 0 512 512" id="film-outline">
    <rect x="48" y="96" width="416" height="320" rx="28" ry="28" fill="none" stroke="currentColor" stroke-linejoin="round" stroke-width="32"></rect>
    <rect x="384" y="336" width="80" height="80" rx="28" ry="28" fill="none" stroke="currentColor" stroke-linejoin="round" stroke-width="32"></rect>
    <rect x="384" y="256" width="80" height="80" rx="28" ry="28" fill="none" stroke="currentColor" stroke-linejoin="round" stroke-width="32"></rect>
    <rect x="384" y="176" width="80" height="80" rx="28" ry="28" fill="none" stroke="currentColor" stroke-linejoin="round" stroke-width="32"></rect>
    <rect x="384" y="96" width="80" height="80" rx="28" ry="28" fill="none" stroke="currentColor" stroke-linejoin="round" stroke-width="32"></rect>
    <rect x="48" y="336" width="80" height="80" rx="28" ry="28" fill="none" stroke="currentColor" stroke-linejoin="round" stroke-width="32"></rect>
    <rect x="48" y="256" width="80" height="80" rx="28" ry="28" fill="none" stroke="currentColor" stroke-linejoin="round" stroke-width="32"></rect>
    <rect x="48" y="176" width="80" height="80" rx="28" ry="28" fill="none" stroke="currentColor" stroke-linejoin="round" stroke-width="32"></rect>
    <rect x="48" y="96" width="80" height="80" rx="28" ry="28" fill="none" stroke="currentColor" stroke-linejoin="round" stroke-width="32"></rect>
    <rect x="128" y="96" width="256" height="160" rx="28" ry="28" fill="none" stroke="currentColor" stroke-linejoin="round" stroke-width="32"></rect>
    <rect x="128" y="256" width="256" height="160" rx="28" ry="28" fill="none" stroke="currentColor" stroke-linejoin="round" stroke-width="32"></rect>
  </symbol>
  <symbol xmlns="http://www.w3.org/2000/svg" viewBox="0 0 512 512" id="podium-outline">
    <path d="M32 160v296a8 8 0 008 8h136V160a16 16 0 00-16-16H48a16 16 0 00-16 16zM320 48H192a16 16 0 00-16 16v400h160V64a16 16 0 00-16-16zM464 208H352a16 16 0 00-16 16v240h136a8 8 0 008-8V224a16 16 0 00-16-16z" fill="none" stroke="currentColor" stroke-linecap="round" stroke-linejoin="round" stroke-width="32"></path>
  </symbol>
  <symbol xmlns="http://www.w3.org/2000/svg" viewBox="0 0 512 512" id="star-outline">
    <path d="M480 208H308L256 48l-52 160H32l140 96-54 160 138-100 138 100-54-160z" fill="none" stroke="currentColor" stroke-linejoin="round" stroke-width="32"></path>
  </symbol>
  <symbol xmlns="http://www.w3.org/2000/svg" viewBox="0 0 512 512" id="hourglass-outline">
    <path d="M145.61 464h220.78c19.8 0 35.55-16.29 33.42-35.06C386.06 308 304 310 304 256s83.11-51 95.8-172.94c2-18.78-13.61-35.06-33.41-35.06H145.61c-19.8 0-35.37 16.28-33.41 35.06C124.89 205 208 201 208 256s-82.06 52-95.8 172.94c-2.14 18.77 13.61 35.06 33.41 35.06z" fill="none" stroke="currentColor" stroke-linecap="round" stroke-linejoin="round" stroke-width="32"></path>
    <path d="M343.3 432H169.13c-15.6 0-20-18-9.06-29.16C186.55 376 240 356.78 240 326V224c0-19.85-38-35-61.51-67.2-3.88-5.31-3.49-12.8 6.37-12.8h142.73c8.41 0 10.23 7.43 6.4 12.75C310.82 189 272 204.05 272 224v102c0 30.53 55.71 47 80.4 76.87 9.95 12.04 6.47 29.13-9.1 29.13z"></path>
  </symbol>
  <symbol xmlns="http://www.w3.org/2000/svg" viewBox="0 0 512 512" id="remove-outline">
    <path fill="none" stroke="currentColor" stroke-linecap="round" stroke-linejoin="round" stroke-width="32" d="M400 256H112"></path>
  </symbol>
  <symbol xmlns="http://www.w3.org/2000/svg" viewBox="0 0 512 512" id="close-outline">
    <path fill="none" stroke="currentColor" stroke-linecap="round" stroke-linejoin="round" stroke-width="32" d="M368 368L144 144M368 144L144 368"></path>
  </symbol>
</svg>